# xmcd
#
# Track frame offsets: 
#        150
#        11214
#        26835
#        38072
#        51186
#        63744
#        73897
#        85836
#        104032
#        115310
#        129312
#        141766
#        155403
#        169683
#        184524
#        195866
#        204306
#        218095
#        229221
#        241429
#
# Disc length: 3347 seconds
#
# Revision: 0
# Processed by: cddbd v1.5.2PL0 Copyright (c) Steve Scherf et al.
# Submitted via: ExactAudioCopyFreeDBPlugin 1.0
#
DISCID=1f0d1114
DTITLE=Bo Diddley - Elvis and Friends CD 10
DYEAR=1900
DGENRE=Rock and Roll
TTITLE0=Willie and Lillie
TTITLE1=Say Man
TTITLE2=Bo Diddley
TTITLE3=Don´t Let It Go
TTITLE4=Little Girl
TTITLE5=Crackin´Up
TTITLE6=I´m Sorry
TTITLE7=Sche´s Alright
TTITLE8=I´m Looking For A Woman
TTITLE9=You Can´t Judge
TTITLE10=Bo´s Guitar
TTITLE11=You Dont Love Me
TTITLE12=The Clock Strikes Twelve 
TTITLE13=Oh Yea
TTITLE14=I Love You So 
TTITLE15=Bo Diddley´s Gunslinger
TTITLE16=Dearest Darling
TTITLE17=Who Do You Love 
TTITLE18=The Great Grandfather
TTITLE19=Hey, Bo Diddley
EXTD=
EXTT0=
EXTT1=
EXTT2=
EXTT3=
EXTT4=
EXTT5=
EXTT6=
EXTT7=
EXTT8=
EXTT9=
EXTT10=
EXTT11=
EXTT12=
EXTT13=
EXTT14=
EXTT15=
EXTT16=
EXTT17=
EXTT18=
EXTT19=
PLAYORDER=
